<svg width="427" height="100" viewBox="0 0 427 100" fill="none" xmlns="http://www.w3.org/2000/svg">
<path d="M159.456 76.5556L133.548 10.2378H122.459L152.893 88.0409L153.237 88.8877H165.331V88.5437L165.648 88.676L196.346 10.2378H185.258L159.456 76.5556Z" fill="#050505"/>
<path d="M213.758 31.9641H203.411V88.8874H213.758V31.9641Z" fill="#050505"/>
<path d="M263.671 37.363C259.251 33.1818 253.429 30.8794 247.078 30.8794C239.906 30.8794 233.449 33.8169 228.924 39.189C224.372 44.5611 221.964 51.8651 221.964 60.3334C221.964 68.8018 224.425 76.2381 228.897 81.5837C233.449 87.0088 239.88 89.9992 247.051 89.9992C253.112 89.9992 258.96 87.4851 263.644 82.9069V84.336C263.644 85.2622 263.644 86.1355 263.644 87.591V88.9142L274.018 88.9936V79.7842C274.018 77.773 274.018 75.4706 274.018 72.4009V10.2378H263.671V37.3366V37.363ZM259.701 45.8843C262.268 49.1393 263.671 53.5588 263.671 58.3751V61.9477C263.671 72.5332 257.187 80.4987 248.586 80.4987C243.664 80.4987 239.562 78.6198 236.704 75.1002C233.846 71.5276 232.311 66.4201 232.311 60.3334C232.311 54.2468 233.873 49.3246 236.836 45.8049C239.721 42.3911 243.77 40.5916 248.56 40.5916C253.085 40.5916 256.922 42.4176 259.675 45.8843H259.701Z" fill="#050505"/>
<path d="M309.189 30.8794C301.515 30.8794 294.608 33.8169 289.738 39.189C284.895 44.5082 282.249 51.9974 282.249 60.3334C282.249 68.6695 284.922 76.1587 289.738 81.4779C294.608 86.8235 301.515 89.7874 309.189 89.7874C321.23 89.7874 330.757 82.7746 334.012 71.4746L334.435 70.0456L324.353 68.299L324.009 69.4104C322.95 72.8243 321.151 75.4706 318.61 77.2966C316.07 79.1491 312.894 80.0753 309.189 80.0753C304.505 80.0753 300.509 78.461 297.624 75.3912C294.978 72.5596 293.311 68.5371 292.808 63.7208H336.129V60.3334C336.129 52.0238 333.456 44.5082 328.64 39.189C323.77 33.8433 316.863 30.8794 309.189 30.8794ZM325.332 54.7761H293.126C293.893 50.6213 295.613 47.1545 298.154 44.7199C300.985 42.0206 304.796 40.5915 309.163 40.5915C313.529 40.5915 317.393 42.0206 320.251 44.6934C322.818 47.1281 324.564 50.5948 325.332 54.7761Z" fill="#050505"/>
<path d="M389.638 31.9641H377.412L363.571 52.0235L349.598 31.9641H339.357V32.9697L338.563 33.5255L357.696 59.6715L336.313 88.8874H348.513L363.571 67.3989L378.126 88.3317L378.523 88.8874H390.723L369.446 59.6715L389.638 31.9641Z" fill="#050505"/>
<path d="M425.36 79.7841C423.164 80.3399 421.073 80.6045 419.168 80.6045C416.601 80.6045 414.881 79.89 413.875 78.3816C413.055 77.1378 412.658 75.3647 412.658 72.7977V41.0149H424.804V31.9643H412.658V17.9651H404.666L402.496 31.9643L393.524 31.9114L393.577 41.2002H402.337L402.31 73.2476C402.31 76.4497 402.945 81.0544 405.936 84.7328C408.794 88.226 413.028 89.9991 418.506 89.9991C420.941 89.9991 423.428 89.7345 425.942 89.2052L427.001 88.9935V79.3872L425.36 79.8106V79.7841Z" fill="#050505"/>
<path d="M208.49 9.4707C205.235 9.4707 202.588 12.1171 202.588 15.3721C202.588 18.6271 205.235 21.2735 208.49 21.2735C211.745 21.2735 214.391 18.6271 214.391 15.3721C214.391 12.1171 211.745 9.4707 208.49 9.4707Z" fill="#050505"/>
<path d="M32.9371 97.6065L67.2831 79.882C67.9822 79.5326 68.46 78.8201 68.46 77.9968C68.46 77.1285 67.9295 76.3848 67.1707 76.0597L33.3762 58.6119C33.2357 58.5358 33.0917 58.4631 32.9476 58.3905H32.9406C29.8984 56.8616 26.4522 56.0002 22.8023 56.0002C10.4648 56.0002 0.459961 65.8484 0.459961 78.0002C0.459961 90.1521 10.4613 100 22.8023 100C26.4522 100 29.8984 99.1389 32.9406 97.61L32.9371 97.6065Z" fill="#050505"/>
<path d="M88.3808 30.5033C99.3847 36.127 103.648 49.4104 97.904 60.1806C92.1599 70.9507 78.5804 75.1187 67.5729 69.4985L12.5391 41.4967C1.53517 35.873 -2.72815 22.5896 3.01594 11.8194C8.76003 1.04926 22.3395 -3.11874 33.347 2.50154L88.3808 30.4999V30.5033Z" fill="#050505"/>
</svg>
